<svg xmlns="http://www.w3.org/2000/svg" viewBox="0 0 761.56 59.5"><defs><style>.cls-1{fill:#416471;}</style></defs><g id="Layer_2" data-name="Layer 2"><g id="Layer_1-2" data-name="Layer 1"><path class="cls-1" d="M702.07,58.07h14V39.83l9.6-8.18,19.75,26.42h16.18l-26.25-35,24-21.66H743.08L716,25.54V1.43h-14ZM644.31,16.3q4.92-4.8,13.73-4.8t13.68,4.76q4.89,4.77,4.88,13.49T671.68,43.2Q666.76,48,658,48q-8.89,0-13.77-4.8T639.4,29.75q0-8.66,4.91-13.45M628.88,45.62a26.56,26.56,0,0,0,11.43,10.27,39.7,39.7,0,0,0,17.57,3.61,40.18,40.18,0,0,0,17.69-3.61,26.69,26.69,0,0,0,11.5-10.27,30,30,0,0,0,4-15.87,30.25,30.25,0,0,0-4-15.87A26.54,26.54,0,0,0,675.73,3.61,39.66,39.66,0,0,0,658.12,0a40.15,40.15,0,0,0-17.69,3.61,26.72,26.72,0,0,0-11.51,10.27,30.07,30.07,0,0,0-4,15.87,30.25,30.25,0,0,0,4,15.87M569.82,16.3q4.92-4.8,13.73-4.8t13.68,4.76q4.88,4.77,4.88,13.49T597.19,43.2Q592.27,48,583.55,48q-8.89,0-13.77-4.8T564.9,29.75q0-8.66,4.92-13.45M554.39,45.62a26.5,26.5,0,0,0,11.43,10.27,39.7,39.7,0,0,0,17.57,3.61,40.18,40.18,0,0,0,17.69-3.61,26.69,26.69,0,0,0,11.5-10.27,30,30,0,0,0,4-15.87,30.25,30.25,0,0,0-4-15.87A26.54,26.54,0,0,0,601.24,3.61,39.66,39.66,0,0,0,583.63,0a40.15,40.15,0,0,0-17.69,3.61,26.72,26.72,0,0,0-11.51,10.27,30.07,30.07,0,0,0-4,15.87,30.25,30.25,0,0,0,4,15.87M526.75,17.45a5.52,5.52,0,0,1-2.46,5Q521.83,24,516.67,24H501.6V11.27H516c3.75,0,6.48.48,8.17,1.46a5,5,0,0,1,2.54,4.72m-.72,29q-2.78,1.74-9,1.74H501.6V33.32H517q6.1,0,9,1.82a6.29,6.29,0,0,1,2.86,5.72A6.13,6.13,0,0,1,526,46.49M488.59,58.07H518.1q11.89,0,18.09-4.21t6.19-12.29q0-9.76-11.27-13.49,9.12-3.41,9.12-12,0-14.59-23.48-14.6H488.59Zm-81.87,0h48.39l1.51-10.63H420.53v-13h32.6V23.88h-32.6V12.06H454.8V1.43H406.72Zm-62.19-4.68q7.22,6.11,21,6.11t20.94-6.11q7.23-6.11,7.22-19.44V1.43h-14V34.91q0,6.74-3.45,9.91T365.55,48q-7.38,0-10.83-3.18t-3.45-9.91V1.43h-14V34q0,13.34,7.22,19.44m-61.8,4.68H329l1.67-11.5h-34V1.43h-14ZM256.39,17.45a5.52,5.52,0,0,1-2.46,5Q251.49,24,246.32,24H231.25V11.27h14.43c3.76,0,6.48.48,8.17,1.46a5,5,0,0,1,2.54,4.72m-.71,29c-1.85,1.16-4.87,1.74-9,1.74H231.25V33.32h15.39q6.11,0,9,1.82a6.31,6.31,0,0,1,2.86,5.72,6.15,6.15,0,0,1-2.78,5.63M218.24,58.07h29.51q11.89,0,18.08-4.21T272,41.57q0-9.76-11.26-13.49,9.12-3.41,9.12-12,0-14.59-23.48-14.6H218.24Zm-81.87,0h48.39l1.51-10.63h-36.1v-13h32.61V23.88H150.17V12.06h34.27V1.43H136.37Zm-27.61,0h14V1.43h-14V22.85H79.41V1.43h-14V58.07h14V34.83h29.35Zm-86.94,0h14V12.93H57.59V1.43H0v11.5H21.82Z"/></g></g></svg>